<svg xmlns="http://www.w3.org/2000/svg" viewBox="0 0 1000 520" role="img" aria-label="World map">
  <rect width="1000" height="520" fill="none"/>
  <g fill="#d8e3ee" opacity="0.9">
    <path d="M86 190l42-40 76-14 72 20 40 44-20 38-64 18-50 44-72-10-44-48z"/>
    <path d="M248 324l50-28 58 12 28 50-20 66-48 42-48-26-24-58z"/>
    <path d="M438 146l54-24 62 22 12 50-36 34-70-8-36-34z"/>
    <path d="M520 242l50-30 70 10 48 48-10 76-52 74-72-20-42-70z"/>
    <path d="M650 162l86-30 108 28 70 64-28 54-118 6-74-34-70 16-36-44z"/>
    <path d="M760 358l58-18 78 38 34 58-36 38-82-8-58-50z"/>
  </g>
</svg>
